<svg data-v-423bf9ae="" xmlns="http://www.w3.org/2000/svg" viewBox="0 0 515 90" class="iconLeft"><!----><!----><!----><g data-v-423bf9ae="" id="9f8640a3-ac61-48d2-8533-c9d50de604c6" fill="white" transform="matrix(5.71973320392212,0,0,5.71973320392212,191.10270673022194,-3.817922022713269)"><path d="M6.27 3.99C5.75 3.93 5.36 3.92 4.76 3.92L1.12 3.92L1.12 13.58L3.64 13.58L3.64 10.19L4.76 10.19C5.36 10.19 5.75 10.18 6.27 10.12C7.67 9.95 8.95 8.96 8.95 7.06C8.95 5.15 7.67 4.16 6.27 3.99ZM5.29 8.22C5.11 8.23 4.89 8.23 4.62 8.23L3.64 8.23L3.64 5.88L4.62 5.88C4.89 5.88 5.11 5.88 5.29 5.89C5.94 5.95 6.31 6.33 6.31 7.06C6.31 7.78 5.94 8.16 5.29 8.22ZM17.22 6.10L14.70 6.10L14.70 10.33C14.70 11.33 14.22 12.07 13.43 12.07C12.63 12.07 12.29 11.65 12.21 10.93C12.17 10.56 12.15 10.15 12.15 9.91L12.15 6.10L9.63 6.10L9.63 10.47C9.63 11.07 9.65 11.51 9.70 11.89C9.87 12.91 10.81 13.78 12.35 13.78C13.03 13.78 13.57 13.62 14.03 13.34L14.70 12.32L14.70 13.58L17.22 13.58ZM26.59 3.29L24.07 3.29L24.07 7.07L23.58 6.27C23.20 6.05 22.47 5.91 21.85 5.91C19.94 5.91 18.31 7.35 18.31 10.01C18.31 12.22 19.57 13.78 21.60 13.78C22.36 13.78 23.09 13.62 23.51 13.31L24.07 12.49L24.07 13.58L26.59 13.58ZM22.47 12.07C21.59 12.07 20.89 11.28 20.89 9.88C20.89 8.36 21.56 7.62 22.54 7.62C23.30 7.62 24.07 8.12 24.07 9.62L24.07 9.94C24.07 11.51 23.39 12.07 22.47 12.07ZM35.95 3.29L33.43 3.29L33.43 7.07L32.94 6.27C32.56 6.05 31.84 5.91 31.22 5.91C29.30 5.91 27.68 7.35 27.68 10.01C27.68 12.22 28.94 13.78 30.97 13.78C31.72 13.78 32.45 13.62 32.87 13.31L33.43 12.49L33.43 13.58L35.95 13.58ZM31.84 12.07C30.95 12.07 30.25 11.28 30.25 9.88C30.25 8.36 30.93 7.62 31.91 7.62C32.66 7.62 33.43 8.12 33.43 9.62L33.43 9.94C33.43 11.51 32.76 12.07 31.84 12.07ZM39.93 3.29L37.41 3.29L37.41 10.93C37.41 11.49 37.41 11.87 37.44 12.26C37.49 13.26 38.15 13.72 39.31 13.72C39.87 13.72 40.32 13.69 40.78 13.65L40.78 11.94C40.12 11.97 40.00 11.87 39.96 11.58C39.93 11.40 39.93 11.24 39.93 10.89ZM49.06 9.74C49.06 7.81 47.80 5.91 45.30 5.91C42.81 5.91 41.31 7.69 41.31 9.87C41.31 12.50 43.02 13.78 45.16 13.78C47.08 13.78 48.48 12.82 48.92 11.13L46.44 11.13C46.34 11.70 45.91 12.07 45.19 12.07C44.48 12.07 43.93 11.72 43.81 10.47L49.01 10.47C49.04 10.22 49.06 9.97 49.06 9.74ZM45.18 7.62C45.85 7.62 46.28 8.05 46.42 8.93L43.89 8.93C44.06 8.01 44.52 7.62 45.18 7.62ZM53.23 5.91C51.24 5.91 49.95 6.83 49.95 8.32C49.95 9.59 50.81 10.25 52.23 10.58C53.56 10.89 54.04 11.16 54.04 11.63C54.04 12.03 53.69 12.21 53.24 12.21C52.71 12.21 52.26 11.83 52.12 11.26L49.64 11.26C49.84 12.94 51.23 13.78 53.26 13.78C55.06 13.78 56.56 13.03 56.56 11.44C56.56 10.00 55.59 9.41 54.24 9.07C52.81 8.72 52.47 8.44 52.47 8.02C52.47 7.70 52.72 7.48 53.07 7.48C53.52 7.48 53.77 7.77 53.89 8.29L56.36 8.29C56.17 6.93 55.09 5.91 53.23 5.91Z"></path></g><!----><g data-v-423bf9ae="" id="0b88a341-d0c2-4cae-a20b-3d4be7f4dfe5" transform="matrix(1.9311647030983734,0,0,1.9311647030983734,-8.177430222201778,-45.225969815167915)" stroke="none" fill="white"><path d="M35.708 45.717c3.77-2.182 6.309-6.255 6.309-10.924s-2.539-8.743-6.309-10.924c-3.77 2.181-6.308 6.255-6.308 10.924s2.539 8.742 6.308 10.924z"></path><path d="M28.14 48.9a10.094 10.094 0 0 0 4.16-4.628c-2.845-2.312-4.667-5.832-4.667-9.784 0-.996.122-1.962.34-2.892-2.91 1.761-4.86 4.95-4.86 8.6 0 3.72 2.023 6.966 5.027 8.704zM46.704 47.986a7.126 7.126 0 0 0 3.566-6.175 7.126 7.126 0 0 0-3.566-6.174 7.126 7.126 0 0 0-3.565 6.174 7.126 7.126 0 0 0 3.565 6.175z"></path><path d="M48.631 47.17a5.706 5.706 0 0 0 2.352 2.615 5.678 5.678 0 0 0 .094-9.78 7.11 7.11 0 0 1-2.445 7.165z"></path><path d="M51.29 51.605l.187-1.49c-.46.34-.919.647-.919.647l.108.842c-1.26 0-2.506.011-3.74.032l.311-2.424s-.576-.386-1.153-.812l.406 3.244c-3.6.067-7.079.219-10.39.447l.706-5.641c-1.02.753-2.04 1.436-2.04 1.436l.547 4.26c-2.324.17-4.562.377-6.697.618l.274-2.136s-.812-.544-1.624-1.144l.423 3.387C13.975 54.504 4.75 57.55 4.75 61.038c0 5.21 20.577 9.435 45.96 9.435s45.958-4.224 45.958-9.435c0-5.17-20.263-9.369-45.377-9.433z"></path></g><!----></svg>