<svg data-v-423bf9ae="" xmlns="http://www.w3.org/2000/svg" viewBox="0 0 463 90" class="iconLeft"><!----><!----><!----><g data-v-423bf9ae="" id="3dfde86b-b566-459c-a7e8-174a4aebc7ed" fill="white" transform="matrix(5.376344159530915,0,0,5.376344159530915,191.97115720602503,-0.05376458241538984)"><path d="M1.03 13.78L1.03 2.80L4.40 2.80L4.40 2.80Q5.49 2.80 6.28 3.24L6.28 3.24L6.28 3.24Q7.07 3.67 7.49 4.48L7.49 4.48L7.49 4.48Q7.90 5.28 7.90 6.37L7.90 6.37L7.90 6.37Q7.90 7.46 7.44 8.26L7.44 8.26L7.44 8.26Q6.99 9.06 6.16 9.48L6.16 9.48L6.16 9.48Q5.33 9.90 4.26 9.90L4.26 9.90L3.42 9.90L3.42 13.78L1.03 13.78ZM3.42 8.13L4.16 8.13L4.16 8.13Q4.84 8.13 5.20 7.66L5.20 7.66L5.20 7.66Q5.56 7.19 5.56 6.37L5.56 6.37L5.56 6.37Q5.56 5.57 5.20 5.13L5.20 5.13L5.20 5.13Q4.85 4.70 4.18 4.70L4.18 4.70L3.42 4.70L3.42 8.13ZM11.14 13.94L11.14 13.94Q10.47 13.94 9.96 13.59L9.96 13.59L9.96 13.59Q9.44 13.24 9.15 12.61L9.15 12.61L9.15 12.61Q8.87 11.97 8.87 11.13L8.87 11.13L8.87 5.63L11.18 5.63L11.18 10.88L11.18 10.88Q11.18 11.42 11.39 11.79L11.39 11.79L11.39 11.79Q11.59 12.15 12.11 12.15L12.11 12.15L12.11 12.15Q12.64 12.15 12.94 11.74L12.94 11.74L12.94 11.74Q13.23 11.34 13.23 10.62L13.23 10.62L13.23 5.63L15.57 5.63L15.57 13.78L13.41 13.78L13.30 12.54L13.20 12.54L13.20 12.54Q12.91 13.21 12.39 13.58L12.39 13.58L12.39 13.58Q11.87 13.94 11.14 13.94L11.14 13.94ZM21.48 2.80L23.82 2.80L23.82 13.78L21.69 13.78L21.60 12.56L21.53 12.56L21.53 12.56Q21.33 13.19 20.80 13.58L20.80 13.58L20.80 13.58Q20.27 13.96 19.59 13.96L19.59 13.96L19.59 13.96Q18.75 13.96 18.12 13.49L18.12 13.49L18.12 13.49Q17.48 13.02 17.12 12.07L17.12 12.07L17.12 12.07Q16.77 11.12 16.77 9.71L16.77 9.71L16.77 9.71Q16.77 8.28 17.12 7.33L17.12 7.33L17.12 7.33Q17.47 6.38 18.09 5.93L18.09 5.93L18.09 5.93Q18.72 5.48 19.54 5.48L19.54 5.48L19.54 5.48Q20.21 5.48 20.70 5.85L20.70 5.85L20.70 5.85Q21.19 6.23 21.41 6.89L21.41 6.89L21.48 6.89L21.48 2.80ZM20.34 12.01L20.34 12.01Q20.90 12.01 21.21 11.41L21.21 11.41L21.21 11.41Q21.52 10.81 21.52 9.69L21.52 9.69L21.52 9.69Q21.52 8.61 21.21 8.02L21.21 8.02L21.21 8.02Q20.90 7.43 20.34 7.43L20.34 7.43L20.34 7.43Q19.78 7.43 19.44 8.00L19.44 8.00L19.44 8.00Q19.11 8.57 19.11 9.69L19.11 9.69L19.11 9.69Q19.11 10.85 19.44 11.43L19.44 11.43L19.44 11.43Q19.78 12.01 20.34 12.01L20.34 12.01ZM29.73 2.80L32.07 2.80L32.07 13.78L29.94 13.78L29.85 12.56L29.78 12.56L29.78 12.56Q29.59 13.19 29.05 13.58L29.05 13.58L29.05 13.58Q28.52 13.96 27.84 13.96L27.84 13.96L27.84 13.96Q27.00 13.96 26.37 13.49L26.37 13.49L26.37 13.49Q25.73 13.02 25.38 12.07L25.38 12.07L25.38 12.07Q25.02 11.12 25.02 9.71L25.02 9.71L25.02 9.71Q25.02 8.28 25.37 7.33L25.37 7.33L25.37 7.33Q25.72 6.38 26.35 5.93L26.35 5.93L26.35 5.93Q26.97 5.48 27.79 5.48L27.79 5.48L27.79 5.48Q28.46 5.48 28.95 5.85L28.95 5.85L28.95 5.85Q29.44 6.23 29.66 6.89L29.66 6.89L29.73 6.89L29.73 2.80ZM28.59 12.01L28.59 12.01Q29.16 12.01 29.46 11.41L29.46 11.41L29.46 11.41Q29.77 10.81 29.77 9.69L29.77 9.69L29.77 9.69Q29.77 8.61 29.46 8.02L29.46 8.02L29.46 8.02Q29.16 7.43 28.59 7.43L28.59 7.43L28.59 7.43Q28.03 7.43 27.70 8.00L27.70 8.00L27.70 8.00Q27.36 8.57 27.36 9.69L27.36 9.69L27.36 9.69Q27.36 10.85 27.70 11.43L27.70 11.43L27.70 11.43Q28.03 12.01 28.59 12.01L28.59 12.01ZM33.71 13.78L33.71 2.80L36.05 2.80L36.05 13.78L33.71 13.78ZM40.86 12.13L40.86 12.13Q41.26 12.13 41.55 11.93L41.55 11.93L41.55 11.93Q41.84 11.74 42.02 11.33L42.02 11.33L43.67 11.83L43.67 11.83Q43.29 12.99 42.55 13.47L42.55 13.47L42.55 13.47Q41.80 13.95 40.74 13.95L40.74 13.95L40.74 13.95Q39.71 13.95 38.91 13.47L38.91 13.47L38.91 13.47Q38.11 12.98 37.66 12.03L37.66 12.03L37.66 12.03Q37.21 11.09 37.21 9.75L37.21 9.75L37.21 9.75Q37.21 7.75 38.04 6.61L38.04 6.61L38.04 6.61Q38.86 5.48 40.54 5.48L40.54 5.48L40.54 5.48Q42.15 5.48 42.94 6.48L42.94 6.48L42.94 6.48Q43.72 7.49 43.72 9.25L43.72 9.25L43.72 9.25Q43.72 9.88 43.65 10.26L43.65 10.26L39.45 10.26L39.45 10.26Q39.44 10.82 39.62 11.25L39.62 11.25L39.62 11.25Q39.79 11.67 40.12 11.90L40.12 11.90L40.12 11.90Q40.44 12.13 40.86 12.13L40.86 12.13ZM40.63 7.21L40.63 7.21Q39.53 7.21 39.49 8.82L39.49 8.82L41.79 8.82L41.79 8.82Q41.75 8.05 41.51 7.63L41.51 7.63L41.51 7.63Q41.26 7.21 40.63 7.21L40.63 7.21ZM47.64 13.95L47.64 13.95Q46.38 13.95 45.46 13.32L45.46 13.32L45.46 13.32Q44.54 12.69 44.19 11.44L44.19 11.44L45.87 10.79L45.87 10.79Q46.07 11.49 46.46 11.86L46.46 11.86L46.46 11.86Q46.85 12.22 47.37 12.22L47.37 12.22L47.37 12.22Q47.71 12.22 47.94 12.03L47.94 12.03L47.94 12.03Q48.17 11.85 48.17 11.48L48.17 11.48L48.17 11.48Q48.17 11.20 48.00 11.00L48.00 11.00L48.00 11.00Q47.83 10.79 47.58 10.65L47.58 10.65L47.58 10.65Q47.33 10.50 46.87 10.29L46.87 10.29L46.87 10.29Q46.65 10.19 46.54 10.14L46.54 10.14L46.54 10.14Q45.96 9.87 45.57 9.59L45.57 9.59L45.57 9.59Q45.18 9.32 44.92 8.88L44.92 8.88L44.92 8.88Q44.65 8.44 44.65 7.81L44.65 7.81L44.65 7.81Q44.65 7.03 45.04 6.50L45.04 6.50L45.04 6.50Q45.43 5.97 46.05 5.72L46.05 5.72L46.05 5.72Q46.66 5.47 47.35 5.47L47.35 5.47L47.35 5.47Q49.86 5.47 50.32 7.62L50.32 7.62L48.73 8.07L48.73 8.07Q48.58 7.57 48.27 7.26L48.27 7.26L48.27 7.26Q47.96 6.95 47.56 6.95L47.56 6.95L47.56 6.95Q47.18 6.95 46.96 7.12L46.96 7.12L46.96 7.12Q46.73 7.30 46.73 7.68L46.73 7.68L46.73 7.68Q46.73 7.94 46.91 8.15L46.91 8.15L46.91 8.15Q47.09 8.35 47.36 8.50L47.36 8.50L47.36 8.50Q47.63 8.65 48.11 8.87L48.11 8.87L48.11 8.87Q48.35 8.98 48.41 9.00L48.41 9.00L48.41 9.00Q49.01 9.29 49.44 9.60L49.44 9.60L49.44 9.60Q49.87 9.91 50.14 10.37L50.14 10.37L50.14 10.37Q50.41 10.84 50.41 11.50L50.41 11.50L50.41 11.50Q50.41 12.28 50.04 12.83L50.04 12.83L50.04 12.83Q49.68 13.38 49.05 13.67L49.05 13.67L49.05 13.67Q48.42 13.95 47.64 13.95L47.64 13.95Z"></path></g><!----><g data-v-423bf9ae="" id="8756c5a3-a7c8-4f15-a436-7ab9c6d935b9" transform="matrix(1.9311647030983734,0,0,1.9311647030983734,-8.177430222201778,-45.225969815167915)" stroke="none" fill="white"><path d="M35.708 45.717c3.77-2.182 6.309-6.255 6.309-10.924s-2.539-8.743-6.309-10.924c-3.77 2.181-6.308 6.255-6.308 10.924s2.539 8.742 6.308 10.924z"></path><path d="M28.14 48.9a10.094 10.094 0 0 0 4.16-4.628c-2.845-2.312-4.667-5.832-4.667-9.784 0-.996.122-1.962.34-2.892-2.91 1.761-4.86 4.95-4.86 8.6 0 3.72 2.023 6.966 5.027 8.704zM46.704 47.986a7.126 7.126 0 0 0 3.566-6.175 7.126 7.126 0 0 0-3.566-6.174 7.126 7.126 0 0 0-3.565 6.174 7.126 7.126 0 0 0 3.565 6.175z"></path><path d="M48.631 47.17a5.706 5.706 0 0 0 2.352 2.615 5.678 5.678 0 0 0 .094-9.78 7.11 7.11 0 0 1-2.445 7.165z"></path><path d="M51.29 51.605l.187-1.49c-.46.34-.919.647-.919.647l.108.842c-1.26 0-2.506.011-3.74.032l.311-2.424s-.576-.386-1.153-.812l.406 3.244c-3.6.067-7.079.219-10.39.447l.706-5.641c-1.02.753-2.04 1.436-2.04 1.436l.547 4.26c-2.324.17-4.562.377-6.697.618l.274-2.136s-.812-.544-1.624-1.144l.423 3.387C13.975 54.504 4.75 57.55 4.75 61.038c0 5.21 20.577 9.435 45.96 9.435s45.958-4.224 45.958-9.435c0-5.17-20.263-9.369-45.377-9.433z"></path></g><!----></svg>