<svg data-v-423bf9ae="" xmlns="http://www.w3.org/2000/svg" viewBox="0 0 412 90" class="iconLeft"><!----><!----><!----><g data-v-423bf9ae="" id="7beffdc6-ac49-4c09-8560-5a326d2ff146" fill="#506690" transform="matrix(4.576658825829835,0,0,4.576658825829835,137.87454781878512,0.5377579559785204)"><path d="M5.63 5.84L5.63 5.84Q6.66 5.84 7.51 6.32L7.51 6.32L7.51 6.32Q8.36 6.80 8.86 7.69L8.86 7.69L8.86 7.69Q9.35 8.58 9.35 9.76L9.35 9.76L9.35 9.76Q9.35 10.93 8.86 11.82L8.86 11.82L8.86 11.82Q8.36 12.71 7.51 13.20L7.51 13.20L7.51 13.20Q6.66 13.68 5.63 13.68L5.63 13.68L5.63 13.68Q4.30 13.68 3.51 12.88L3.51 12.88L3.51 16.27L0.85 16.27L0.85 5.96L3.39 5.96L3.39 6.72L3.39 6.72Q4.13 5.84 5.63 5.84L5.63 5.84ZM5.07 11.56L5.07 11.56Q5.77 11.56 6.22 11.08L6.22 11.08L6.22 11.08Q6.66 10.60 6.66 9.76L6.66 9.76L6.66 9.76Q6.66 8.92 6.22 8.43L6.22 8.43L6.22 8.43Q5.77 7.95 5.07 7.95L5.07 7.95L5.07 7.95Q4.37 7.95 3.92 8.43L3.92 8.43L3.92 8.43Q3.47 8.92 3.47 9.76L3.47 9.76L3.47 9.76Q3.47 10.60 3.92 11.08L3.92 11.08L3.92 11.08Q4.37 11.56 5.07 11.56L5.07 11.56ZM15.90 5.96L18.56 5.96L18.56 13.55L16.03 13.55L16.03 12.74L16.03 12.74Q15.61 13.20 15.02 13.44L15.02 13.44L15.02 13.44Q14.43 13.68 13.78 13.68L13.78 13.68L13.78 13.68Q12.31 13.68 11.43 12.81L11.43 12.81L11.43 12.81Q10.56 11.94 10.56 10.21L10.56 10.21L10.56 5.96L13.22 5.96L13.22 9.77L13.22 9.77Q13.22 10.63 13.54 11.02L13.54 11.02L13.54 11.02Q13.86 11.41 14.48 11.41L14.48 11.41L14.48 11.41Q15.11 11.41 15.51 10.97L15.51 10.97L15.51 10.97Q15.90 10.53 15.90 9.62L15.90 9.62L15.90 5.96ZM25.68 3.16L28.34 3.16L28.34 13.55L25.80 13.55L25.80 12.80L25.80 12.80Q25.06 13.68 23.58 13.68L23.58 13.68L23.58 13.68Q22.54 13.68 21.69 13.20L21.69 13.20L21.69 13.20Q20.83 12.71 20.34 11.82L20.34 11.82L20.34 11.82Q19.84 10.92 19.84 9.74L19.84 9.74L19.84 9.74Q19.84 8.57 20.34 7.68L20.34 7.68L20.34 7.68Q20.83 6.79 21.69 6.31L21.69 6.31L21.69 6.31Q22.54 5.84 23.58 5.84L23.58 5.84L23.58 5.84Q24.93 5.84 25.68 6.62L25.68 6.62L25.68 3.16ZM24.14 11.56L24.14 11.56Q24.82 11.56 25.27 11.08L25.27 11.08L25.27 11.08Q25.72 10.60 25.72 9.74L25.72 9.74L25.72 9.74Q25.72 8.90 25.28 8.43L25.28 8.43L25.28 8.43Q24.84 7.95 24.14 7.95L24.14 7.95L24.14 7.95Q23.44 7.95 22.99 8.43L22.99 8.43L22.99 8.43Q22.54 8.90 22.54 9.74L22.54 9.74L22.54 9.74Q22.54 10.60 22.99 11.08L22.99 11.08L22.99 11.08Q23.44 11.56 24.14 11.56L24.14 11.56ZM35.45 3.16L38.11 3.16L38.11 13.55L35.57 13.55L35.57 12.80L35.57 12.80Q34.83 13.68 33.35 13.68L33.35 13.68L33.35 13.68Q32.31 13.68 31.46 13.20L31.46 13.20L31.46 13.20Q30.60 12.71 30.11 11.82L30.11 11.82L30.11 11.82Q29.61 10.92 29.61 9.74L29.61 9.74L29.61 9.74Q29.61 8.57 30.11 7.68L30.11 7.68L30.11 7.68Q30.60 6.79 31.46 6.31L31.46 6.31L31.46 6.31Q32.31 5.84 33.35 5.84L33.35 5.84L33.35 5.84Q34.71 5.84 35.45 6.62L35.45 6.62L35.45 3.16ZM33.91 11.56L33.91 11.56Q34.59 11.56 35.04 11.08L35.04 11.08L35.04 11.08Q35.49 10.60 35.49 9.74L35.49 9.74L35.49 9.74Q35.49 8.90 35.05 8.43L35.05 8.43L35.05 8.43Q34.61 7.95 33.91 7.95L33.91 7.95L33.91 7.95Q33.21 7.95 32.76 8.43L32.76 8.43L32.76 8.43Q32.31 8.90 32.31 9.74L32.31 9.74L32.31 9.74Q32.31 10.60 32.76 11.08L32.76 11.08L32.76 11.08Q33.21 11.56 33.91 11.56L33.91 11.56ZM39.82 13.55L39.82 3.16L42.48 3.16L42.48 13.55L39.82 13.55ZM51.95 9.77L51.95 9.77Q51.95 9.80 51.91 10.43L51.91 10.43L46.40 10.43L46.40 10.43Q46.56 11.02 47.05 11.33L47.05 11.33L47.05 11.33Q47.53 11.65 48.26 11.65L48.26 11.65L48.26 11.65Q48.80 11.65 49.20 11.49L49.20 11.49L49.20 11.49Q49.60 11.34 50.01 10.99L50.01 10.99L51.41 12.45L51.41 12.45Q50.30 13.68 48.17 13.68L48.17 13.68L48.17 13.68Q46.84 13.68 45.84 13.17L45.84 13.17L45.84 13.17Q44.83 12.67 44.27 11.77L44.27 11.77L44.27 11.77Q43.72 10.88 43.72 9.74L43.72 9.74L43.72 9.74Q43.72 8.62 44.26 7.73L44.26 7.73L44.26 7.73Q44.80 6.85 45.75 6.34L45.75 6.34L45.75 6.34Q46.70 5.84 47.89 5.84L47.89 5.84L47.89 5.84Q49.03 5.84 49.95 6.31L49.95 6.31L49.95 6.31Q50.88 6.78 51.41 7.66L51.41 7.66L51.41 7.66Q51.95 8.55 51.95 9.77L51.95 9.77ZM47.91 7.73L47.91 7.73Q47.29 7.73 46.88 8.08L46.88 8.08L46.88 8.08Q46.47 8.43 46.35 9.03L46.35 9.03L49.46 9.03L49.46 9.03Q49.35 8.43 48.94 8.08L48.94 8.08L48.94 8.08Q48.52 7.73 47.91 7.73L47.91 7.73ZM55.94 13.68L55.94 13.68Q54.99 13.68 54.07 13.46L54.07 13.46L54.07 13.46Q53.14 13.24 52.58 12.89L52.58 12.89L53.38 11.07L53.38 11.07Q53.90 11.40 54.61 11.58L54.61 11.58L54.61 11.58Q55.33 11.77 56.03 11.77L56.03 11.77L56.03 11.77Q56.67 11.77 56.94 11.64L56.94 11.64L56.94 11.64Q57.22 11.51 57.22 11.26L57.22 11.26L57.22 11.26Q57.22 11.00 56.89 10.90L56.89 10.90L56.89 10.90Q56.56 10.79 55.85 10.70L55.85 10.70L55.85 10.70Q54.94 10.58 54.30 10.40L54.30 10.40L54.30 10.40Q53.66 10.22 53.20 9.73L53.20 9.73L53.20 9.73Q52.74 9.24 52.74 8.36L52.74 8.36L52.74 8.36Q52.74 7.63 53.17 7.06L53.17 7.06L53.17 7.06Q53.61 6.50 54.44 6.17L54.44 6.17L54.44 6.17Q55.27 5.84 56.43 5.84L56.43 5.84L56.43 5.84Q57.26 5.84 58.07 6.01L58.07 6.01L58.07 6.01Q58.88 6.17 59.43 6.48L59.43 6.48L58.63 8.29L58.63 8.29Q57.62 7.73 56.45 7.73L56.45 7.73L56.45 7.73Q55.82 7.73 55.52 7.87L55.52 7.87L55.52 7.87Q55.23 8.02 55.23 8.26L55.23 8.26L55.23 8.26Q55.23 8.53 55.55 8.63L55.55 8.63L55.55 8.63Q55.87 8.74 56.62 8.85L56.62 8.85L56.62 8.85Q57.55 8.99 58.17 9.17L58.17 9.17L58.17 9.17Q58.79 9.35 59.24 9.83L59.24 9.83L59.24 9.83Q59.70 10.32 59.70 11.19L59.70 11.19L59.70 11.19Q59.70 11.90 59.26 12.47L59.26 12.47L59.26 12.47Q58.83 13.03 57.98 13.36L57.98 13.36L57.98 13.36Q57.13 13.68 55.94 13.68L55.94 13.68Z"></path></g><!----><g data-v-423bf9ae="" id="96e38045-8e1e-434d-8d6f-b7b13e958ee0" transform="matrix(2.6470588235294117,0,0,2.6470588235294117,-2.529411764705884,-18.529411764705884)" stroke="none" fill="#506690"><path d="M24 7C11.3 7 1 14.6 1 24c0 5.8 4.8 10.9 13.5 14.1.8.3 1.5.6 2.2.9 2.2 1 4.4 2 7.3 2 12.7 0 23-7.6 23-17S36.7 7 24 7zm0 32c-2.5 0-4.4-.8-6.4-1.7-.7-.3-1.5-.7-2.3-1C10.7 34.6 3 30.7 3 24c0-8.3 9.4-15 21-15s21 6.7 21 15-9.4 15-21 15z"></path><path d="M24 13c-9.4 0-17 4.9-17 11 0 3.8 3.5 6.8 10.7 9 .7.2 1.3.5 2 .8 1.2.6 2.5 1.2 4.3 1.2 9.4 0 17-4.9 17-11s-7.6-11-17-11zm0 20c-1.4 0-2.3-.5-3.4-1-.7-.3-1.4-.7-2.3-.9C12 29.1 9 26.8 9 24c0-5 6.7-9 15-9s15 4 15 9-6.7 9-15 9z"></path><path d="M24 19c-5.1 0-9 2.1-9 5 0 2.4 3 3 6 3.5l.8.2c.1 0 .1.1.3.3.3.4.8 1 1.9 1 5.1 0 9-2.1 9-5s-3.9-5-9-5zm0 8c-.1 0-.1 0-.3-.3-.3-.3-.7-.8-1.5-1l-.9-.2c-1.6-.3-4.3-.8-4.3-1.5 0-1.4 3-3 7-3s7 1.6 7 3-3 3-7 3z"></path></g><!----></svg>