<svg data-v-fde0c5aa="" xmlns="http://www.w3.org/2000/svg" viewBox="0 0 300 300" class="icon"><!----><defs data-v-fde0c5aa=""><!----></defs><rect data-v-fde0c5aa="" fill="#5cdb95" x="0" y="0" width="300px" height="300px" class="logo-background-square"></rect><!----><defs data-v-fde0c5aa=""><!----></defs><g data-v-fde0c5aa="" id="e9d2b489-af8c-4989-a99f-10d4bc8a82e2" fill="#05386b" stroke="none" transform="matrix(2.393437648262648,0,0,2.393437648262648,28.631171170752424,37.09915382595239)"><path d="M35.708 45.717c3.77-2.182 6.309-6.255 6.309-10.924s-2.539-8.743-6.309-10.924c-3.77 2.181-6.308 6.255-6.308 10.924s2.539 8.742 6.308 10.924z"></path><path d="M28.14 48.9a10.094 10.094 0 0 0 4.16-4.628c-2.845-2.312-4.667-5.832-4.667-9.784 0-.996.122-1.962.34-2.892-2.91 1.761-4.86 4.95-4.86 8.6 0 3.72 2.023 6.966 5.027 8.704zM46.704 47.986a7.126 7.126 0 0 0 3.566-6.175 7.126 7.126 0 0 0-3.566-6.174 7.126 7.126 0 0 0-3.565 6.174 7.126 7.126 0 0 0 3.565 6.175z"></path><path d="M48.631 47.17a5.706 5.706 0 0 0 2.352 2.615 5.678 5.678 0 0 0 .094-9.78 7.11 7.11 0 0 1-2.445 7.165z"></path><path d="M51.29 51.605l.187-1.49c-.46.34-.919.647-.919.647l.108.842c-1.26 0-2.506.011-3.74.032l.311-2.424s-.576-.386-1.153-.812l.406 3.244c-3.6.067-7.079.219-10.39.447l.706-5.641c-1.02.753-2.04 1.436-2.04 1.436l.547 4.26c-2.324.17-4.562.377-6.697.618l.274-2.136s-.812-.544-1.624-1.144l.423 3.387C13.975 54.504 4.75 57.55 4.75 61.038c0 5.21 20.577 9.435 45.96 9.435s45.958-4.224 45.958-9.435c0-5.17-20.263-9.369-45.377-9.433z"></path></g><!----></svg>