<svg data-v-fde0c5aa="" xmlns="http://www.w3.org/2000/svg" viewBox="0 0 300 300" class="icon"><!----><defs data-v-fde0c5aa=""><!----></defs><rect data-v-fde0c5aa="" fill="#F1F4F8" x="0" y="0" width="300px" height="300px" class="logo-background-square"></rect><!----><defs data-v-fde0c5aa=""><!----></defs><g data-v-fde0c5aa="" id="b5c5ac14-0328-40ab-b49b-5590aa3fd5d7" fill="#506690" stroke="none" transform="matrix(4.782608695652174,0,0,4.782608695652174,35.21739130434783,35.21739130434783)"><path d="M24 7C11.3 7 1 14.6 1 24c0 5.8 4.8 10.9 13.5 14.1.8.3 1.5.6 2.2.9 2.2 1 4.4 2 7.3 2 12.7 0 23-7.6 23-17S36.7 7 24 7zm0 32c-2.5 0-4.4-.8-6.4-1.7-.7-.3-1.5-.7-2.3-1C10.7 34.6 3 30.7 3 24c0-8.3 9.4-15 21-15s21 6.7 21 15-9.4 15-21 15z"></path><path d="M24 13c-9.4 0-17 4.9-17 11 0 3.8 3.5 6.8 10.7 9 .7.2 1.3.5 2 .8 1.2.6 2.5 1.2 4.3 1.2 9.4 0 17-4.9 17-11s-7.6-11-17-11zm0 20c-1.4 0-2.3-.5-3.4-1-.7-.3-1.4-.7-2.3-.9C12 29.1 9 26.8 9 24c0-5 6.7-9 15-9s15 4 15 9-6.7 9-15 9z"></path><path d="M24 19c-5.1 0-9 2.1-9 5 0 2.4 3 3 6 3.5l.8.2c.1 0 .1.1.3.3.3.4.8 1 1.9 1 5.1 0 9-2.1 9-5s-3.9-5-9-5zm0 8c-.1 0-.1 0-.3-.3-.3-.3-.7-.8-1.5-1l-.9-.2c-1.6-.3-4.3-.8-4.3-1.5 0-1.4 3-3 7-3s7 1.6 7 3-3 3-7 3z"></path></g><!----></svg>